# xmcd
#
# Track frame offsets: 
#        150
#        12638
#        29594
#        52192
#        69082
#        87147
#        108554
#        126205
#        145246
#        163496
#        185511
#        198598
#        216506
#        235873
#        249368
#
# Disc length: 3591 seconds
#
# Revision: 0
# Processed by: cddbd v1.5.2PL0 Copyright (c) Steve Scherf et al.
# Submitted via: ExactAudioCopy v1.0b3
#
DISCID=e40e050f
DTITLE=Dicky Greenwood - Soulful Blues
DYEAR=2005
DGENRE=Blues
TTITLE0=That's what Love is
TTITLE1=The Woman is a Keeper
TTITLE2=What Drives a Woman
TTITLE3=Sweet Dreams
TTITLE4=Let Your Hair Down
TTITLE5=Accused
TTITLE6=Can I be Forgiven
TTITLE7=Don't Burn my Clutch
TTITLE8=Soul to Soul
TTITLE9=Sweet Dollars
TTITLE10=Let's Just Let it Be
TTITLE11=Travelin'
TTITLE12=Naggin'
TTITLE13=You're Cookin'
TTITLE14=Travelin'
EXTD=
EXTT0=
EXTT1=
EXTT2=
EXTT3=
EXTT4=
EXTT5=
EXTT6=
EXTT7=
EXTT8=
EXTT9=
EXTT10=
EXTT11=
EXTT12=
EXTT13=
EXTT14=
PLAYORDER=
